<svg id="Layer_1" enable-background="new 0 0 64 64" viewBox="0 0 64 64" xmlns="http://www.w3.org/2000/svg" width="300" height="300" version="1.1" xmlns:xlink="http://www.w3.org/1999/xlink" xmlns:svgjs="http://svgjs.dev/svgjs"><g width="100%" height="100%" transform="matrix(1,0,0,1,0,0)"><g><path d="m54 19h-4v-4c0-.55-.45-1-1-1s-1 .45-1 1v4h-4c-.55 0-1 .45-1 1s.45 1 1 1h4v4c0 .55.45 1 1 1s1-.45 1-1v-4h4c.55 0 1-.45 1-1s-.45-1-1-1z" fill="#000000" fill-opacity="1" data-original-color="#000000ff" stroke="none" stroke-opacity="1"/><path d="m39.54 53.5h-15.08c-.55 0-1 .45-1 1s.45 1 1 1h15.08c.55 0 1-.45 1-1s-.45-1-1-1z" fill="#000000" fill-opacity="1" data-original-color="#000000ff" stroke="none" stroke-opacity="1"/><path d="m48.5 7.5c-1.99 0-3.93.48-5.64 1.35-.48-.73-1.04-1.42-1.67-2.05-2.44-2.45-5.71-3.8-9.19-3.8-7.17 0-13 5.83-13 13v3h-4c-2.76 0-5 2.24-5 5v32c0 2.76 2.24 5 5 5h34c2.76 0 5-2.24 5-5v-24.77c1.96-.96 3.64-2.41 4.88-4.26 1.39-2.08 2.12-4.49 2.12-6.97 0-6.89-5.61-12.5-12.5-12.5zm-27.5 8.5c0-6.07 4.93-11 11-11 4.08.25 7.13 1.88 9.16 4.89-2.92 2.1-4.83 5.52-5.12 9.11h-15.04zm31 40c0 1.65-1.35 3-3 3h-34c-1.65 0-3-1.35-3-3v-32c0-1.65 1.35-3 3-3h4v10c0 .55.45 1 1 1s1-.45 1-1v-10h15.04c.62 7.62 8.54 13.06 15.96 11.01zm5.22-30.15c-5.51 8.17-19.22 4.57-19.22-5.85.01-.98.17-1.92.39-2.86 2.61-11.14 20.61-9.84 20.61 2.86 0 2.09-.62 4.11-1.78 5.85z" fill="#000000" fill-opacity="1" data-original-color="#000000ff" stroke="none" stroke-opacity="1"/></g></g></svg>