<svg xmlns="http://www.w3.org/2000/svg" xmlns:xlink="http://www.w3.org/1999/xlink" viewBox="0 0 500 500"><defs><style>.cls-1{fill:url(#Degradado_sin_nombre_3);}.cls-2{fill:#fff;}</style><linearGradient id="Degradado_sin_nombre_3" x1="85.86" y1="84.59" x2="414.14" y2="412.88" gradientUnits="userSpaceOnUse"><stop offset="0" stop-color="#ffe185"/><stop offset="0.21" stop-color="#ffbb36"/><stop offset="0.38" stop-color="#ff5176"/><stop offset="0.52" stop-color="#f63395"/><stop offset="0.74" stop-color="#a436d2"/><stop offset="1" stop-color="#5f4eed"/></linearGradient></defs><g id="ELEMENTS"><circle class="cls-1" cx="250" cy="248.74" r="232.13"/><path class="cls-2" d="M314,171.07a14.17,14.17,0,1,0,14.17,14.17A14.16,14.16,0,0,0,314,171.07Z"/><path class="cls-2" d="M251,189.24a59.5,59.5,0,1,0,59.5,59.5A59.57,59.57,0,0,0,251,189.24Zm0,97.61a38.12,38.12,0,1,1,38.11-38.11A38.16,38.16,0,0,1,251,286.85Z"/><path class="cls-2" d="M298.23,369.54H201.77A72.65,72.65,0,0,1,129.2,297V200.5a72.65,72.65,0,0,1,72.57-72.57h96.46A72.66,72.66,0,0,1,370.8,200.5V297A72.66,72.66,0,0,1,298.23,369.54ZM201.77,150.66a49.89,49.89,0,0,0-49.84,49.84V297a49.89,49.89,0,0,0,49.84,49.84h96.46A49.9,49.9,0,0,0,348.07,297V200.5a49.9,49.9,0,0,0-49.84-49.84Z"/></g></svg>