<svg height="512" viewBox="0 0 24 24" width="512" xmlns="http://www.w3.org/2000/svg"><g id="Layer_8" fill="rgb(0,0,0)" data-name="Layer 8"><path d="m19 4h-2v-1a1 1 0 0 0 -2 0v1h-6v-1a1 1 0 0 0 -2 0v1h-2a3 3 0 0 0 -3 3v12a3 3 0 0 0 3 3h14a3 3 0 0 0 3-3v-12a3 3 0 0 0 -3-3zm-15 3a1 1 0 0 1 1-1h2v1a1 1 0 0 0 2 0v-1h6v1a1 1 0 0 0 2 0v-1h2a1 1 0 0 1 1 1v2h-16zm15 13h-14a1 1 0 0 1 -1-1v-8h16v8a1 1 0 0 1 -1 1z"/><path d="m13.25 13.34-2 2.2-.54-.54a1 1 0 0 0 -1.42 0 1 1 0 0 0 0 1.41l1.34 1.34a1 1 0 0 0 .7.29 1 1 0 0 0 .72-.34l2.67-3a1 1 0 0 0 -1.5-1.32z"/></g></svg>