<svg xmlns="http://www.w3.org/2000/svg" xmlns:xlink="http://www.w3.org/1999/xlink" viewBox="0 0 500 500"><defs><style>.cls-1{fill:url(#linear-gradient);}.cls-2{fill:#ff1753;}.cls-2,.cls-3,.cls-4{fill-rule:evenodd;}.cls-3{fill:#fff;}.cls-4{fill:#00c9d0;}</style><linearGradient id="linear-gradient" x1="96.94" y1="89.21" x2="415.99" y2="408.26" gradientUnits="userSpaceOnUse"><stop offset="0" stop-color="#23004a"/><stop offset="0.96" stop-color="#020003"/><stop offset="1"/></linearGradient></defs><g id="ELEMENTS"><circle class="cls-1" cx="256.47" cy="248.74" r="225.61"/><path class="cls-2" d="M303.72,213.49a99.64,99.64,0,0,0,58.14,18.6V190.38a59,59,0,0,1-12.21-1.28v32.83a99.72,99.72,0,0,1-58.15-18.6v85.11a77.15,77.15,0,0,1-120,64.05,77.14,77.14,0,0,0,132.27-53.9v-85.1Zm15.06-42.08a58.05,58.05,0,0,1-15.06-34V132H292.14a58.42,58.42,0,0,0,26.64,39.39ZM198.38,319.82a35.27,35.27,0,0,1,28.09-56.61,35.62,35.62,0,0,1,10.7,1.65V222.23a77.88,77.88,0,0,0-12.21-.71v33.19a35.27,35.27,0,0,0-26.58,65.11Z"/><path class="cls-3" d="M291.5,203.33a99.72,99.72,0,0,0,58.15,18.6V189.1a58.3,58.3,0,0,1-30.87-17.69A58.42,58.42,0,0,1,292.14,132H261.75V298.59a35.29,35.29,0,0,1-63.37,21.23A35.28,35.28,0,0,1,225,254.71V221.52a77.08,77.08,0,0,0-53.51,131A77.14,77.14,0,0,0,291.5,288.44Z"/><path class="cls-4" d="M349.65,189.1v-8.87a58.2,58.2,0,0,1-30.87-8.82A58.28,58.28,0,0,0,349.65,189.1ZM292.14,132c-.27-1.59-.49-3.19-.64-4.79v-5.36h-42V288.44a35.3,35.3,0,0,1-51.15,31.38,35.29,35.29,0,0,0,63.37-21.23V132ZM225,221.52v-9.45a77.09,77.09,0,0,0-53.51,140.42,77.08,77.08,0,0,1,53.51-131Z"/></g></svg>