<svg xmlns="http://www.w3.org/2000/svg" xmlns:xlink="http://www.w3.org/1999/xlink" viewBox="0 0 500 500"><defs><style>.cls-1{fill:url(#Degradado_sin_nombre_7);}.cls-2{fill:#fff;}</style><linearGradient id="Degradado_sin_nombre_7" x1="86.38" y1="85.11" x2="413.62" y2="412.36" gradientUnits="userSpaceOnUse"><stop offset="0" stop-color="red"/><stop offset="1" stop-color="#9b0000"/></linearGradient></defs><g id="ELEMENTS"><circle class="cls-1" cx="250" cy="248.74" r="231.4"/><path class="cls-2" d="M362.39,219.39a49.34,49.34,0,0,0-49.33-49.33H186.94a49.34,49.34,0,0,0-49.33,49.33v58.69a49.34,49.34,0,0,0,49.33,49.33H313.06a49.34,49.34,0,0,0,49.33-49.33Zm-74.18,33.74-56.56,28c-2.21,1.2-9.75-.41-9.75-2.93V220.75c0-2.55,7.6-4.16,9.82-2.89l54.14,29.45C288.13,248.61,290.51,251.89,288.21,253.13Z"/></g></svg>